<svg xmlns="http://www.w3.org/2000/svg" viewBox="0 0 900 520" role="img" aria-labelledby="title desc">
<title id="title">Deutsch-WiPA 2026 interface preview</title>
<desc id="desc">Abstract preview of a German learning app with vocabulary, grammar, conjugation and review cards.</desc>
<defs>
  <linearGradient id="g" x1="0" y1="0" x2="1" y2="1">
    <stop offset="0" stop-color="#eef8fb"/>
    <stop offset="1" stop-color="#ffffff"/>
  </linearGradient>
</defs>
<rect width="900" height="520" rx="34" fill="url(#g)"/>
<rect x="42" y="40" width="816" height="64" rx="18" fill="#ffffff" stroke="#cfe1ea"/>
<text x="72" y="80" font-family="Arial, sans-serif" font-size="24" font-weight="700" fill="#0c1b2f">Deutsch-WiPA 2026</text>
<text x="650" y="80" font-family="Arial, sans-serif" font-size="15" font-weight="700" fill="#006d8f">B1 → B2</text>

<rect x="54" y="135" width="236" height="145" rx="22" fill="#ffffff" stroke="#cfe1ea"/>
<text x="78" y="178" font-family="Arial, sans-serif" font-size="20" font-weight="700" fill="#0c1b2f">Vokabular</text>
<text x="78" y="215" font-family="Arial, sans-serif" font-size="16" fill="#4e5d70">articles · plurals · examples</text>
<rect x="78" y="235" width="124" height="20" rx="10" fill="#dff4f7"/>

<rect x="332" y="135" width="236" height="145" rx="22" fill="#ffffff" stroke="#cfe1ea"/>
<text x="356" y="178" font-family="Arial, sans-serif" font-size="20" font-weight="700" fill="#0c1b2f">Grammatik</text>
<text x="356" y="215" font-family="Arial, sans-serif" font-size="16" fill="#4e5d70">cases · verbs · connectors</text>
<rect x="356" y="235" width="150" height="20" rx="10" fill="#dff4f7"/>

<rect x="610" y="135" width="236" height="145" rx="22" fill="#ffffff" stroke="#cfe1ea"/>
<text x="634" y="178" font-family="Arial, sans-serif" font-size="20" font-weight="700" fill="#0c1b2f">Review</text>
<text x="634" y="215" font-family="Arial, sans-serif" font-size="16" fill="#4e5d70">practice · feedback · SRS</text>
<rect x="634" y="235" width="132" height="20" rx="10" fill="#dff4f7"/>

<rect x="90" y="330" width="720" height="96" rx="24" fill="#0c1b2f"/>
<text x="125" y="372" font-family="Arial, sans-serif" font-size="22" font-weight="700" fill="#ffffff">der Überblick</text>
<text x="125" y="405" font-family="Arial, sans-serif" font-size="17" fill="#cfe1ea">overview · structured practice · learner progress</text>
<circle cx="740" cy="378" r="27" fill="#0099a8"/>
<path d="M727 378l9 9 18-23" fill="none" stroke="#ffffff" stroke-width="6" stroke-linecap="round" stroke-linejoin="round"/>
</svg>